<svg width="101" height="40" viewBox="0 0 101 40" fill="none" xmlns="http://www.w3.org/2000/svg">
<path d="M18.8242 13.2031H21.0391V22.1768C21.0391 23.4014 20.6553 24.374 19.8877 25.0947C19.126 25.8154 18.1182 26.1758 16.8643 26.1758C15.5283 26.1758 14.4971 25.8389 13.7705 25.165C13.0439 24.4912 12.6807 23.5537 12.6807 22.3525H14.8955C14.8955 23.0322 15.0625 23.5449 15.3965 23.8906C15.7363 24.2305 16.2256 24.4004 16.8643 24.4004C17.4619 24.4004 17.9365 24.2041 18.2881 23.8115C18.6455 23.4131 18.8242 22.8652 18.8242 22.168V13.2031ZM22.9814 21.1572C22.9814 20.2256 23.166 19.3877 23.5352 18.6436C23.9043 17.8936 24.4229 17.3193 25.0908 16.9209C25.7588 16.5166 26.5264 16.3145 27.3936 16.3145C28.6768 16.3145 29.7168 16.7275 30.5137 17.5537C31.3164 18.3799 31.75 19.4756 31.8145 20.8408L31.8232 21.3418C31.8232 22.2793 31.6416 23.1172 31.2783 23.8555C30.9209 24.5938 30.4053 25.165 29.7314 25.5693C29.0635 25.9736 28.29 26.1758 27.4111 26.1758C26.0693 26.1758 24.9941 25.7305 24.1855 24.8398C23.3828 23.9434 22.9814 22.751 22.9814 21.2627V21.1572ZM25.1172 21.3418C25.1172 22.3203 25.3193 23.0879 25.7236 23.6445C26.1279 24.1953 26.6904 24.4707 27.4111 24.4707C28.1318 24.4707 28.6914 24.1895 29.0898 23.627C29.4941 23.0645 29.6963 22.2412 29.6963 21.1572C29.6963 20.1963 29.4883 19.4346 29.0723 18.8721C28.6621 18.3096 28.1025 18.0283 27.3936 18.0283C26.6963 18.0283 26.1426 18.3066 25.7324 18.8633C25.3223 19.4141 25.1172 20.2402 25.1172 21.3418ZM35.7344 17.5273C36.4316 16.7188 37.3135 16.3145 38.3799 16.3145C40.4072 16.3145 41.4355 17.4717 41.4648 19.7861V26H39.3291V19.8652C39.3291 19.209 39.1855 18.7461 38.8984 18.4766C38.6172 18.2012 38.2012 18.0635 37.6504 18.0635C36.7949 18.0635 36.1562 18.4443 35.7344 19.2061V26H33.5986V12.5H35.7344V17.5273ZM45.6133 16.4902L45.6748 17.5889C46.3779 16.7393 47.3008 16.3145 48.4434 16.3145C50.4238 16.3145 51.4316 17.4482 51.4668 19.7158V26H49.3311V19.8389C49.3311 19.2354 49.1992 18.79 48.9355 18.5029C48.6777 18.21 48.2529 18.0635 47.6611 18.0635C46.7998 18.0635 46.1582 18.4531 45.7363 19.2324V26H43.6006V16.4902H45.6133ZM58.3398 26V13.2031H62.1191C63.25 13.2031 64.252 13.4551 65.125 13.959C66.0039 14.4629 66.6836 15.1777 67.1641 16.1035C67.6445 17.0293 67.8848 18.0898 67.8848 19.2852V19.9268C67.8848 21.1396 67.6416 22.2061 67.1553 23.126C66.6748 24.0459 65.9863 24.7549 65.0898 25.2529C64.1992 25.751 63.1768 26 62.0225 26H58.3398ZM60.5635 14.9961V24.2246H62.0137C63.1797 24.2246 64.0732 23.8613 64.6943 23.1348C65.3213 22.4023 65.6406 21.3535 65.6523 19.9883V19.2764C65.6523 17.8877 65.3506 16.8271 64.7471 16.0947C64.1436 15.3623 63.2676 14.9961 62.1191 14.9961H60.5635ZM69.4932 21.1572C69.4932 20.2256 69.6777 19.3877 70.0469 18.6436C70.416 17.8936 70.9346 17.3193 71.6025 16.9209C72.2705 16.5166 73.0381 16.3145 73.9053 16.3145C75.1885 16.3145 76.2285 16.7275 77.0254 17.5537C77.8281 18.3799 78.2617 19.4756 78.3262 20.8408L78.335 21.3418C78.335 22.2793 78.1533 23.1172 77.79 23.8555C77.4326 24.5938 76.917 25.165 76.2432 25.5693C75.5752 25.9736 74.8018 26.1758 73.9229 26.1758C72.5811 26.1758 71.5059 25.7305 70.6973 24.8398C69.8945 23.9434 69.4932 22.751 69.4932 21.2627V21.1572ZM71.6289 21.3418C71.6289 22.3203 71.8311 23.0879 72.2354 23.6445C72.6396 24.1953 73.2021 24.4707 73.9229 24.4707C74.6436 24.4707 75.2031 24.1895 75.6016 23.627C76.0059 23.0645 76.208 22.2412 76.208 21.1572C76.208 20.1963 76 19.4346 75.584 18.8721C75.1738 18.3096 74.6143 18.0283 73.9053 18.0283C73.208 18.0283 72.6543 18.3066 72.2441 18.8633C71.834 19.4141 71.6289 20.2402 71.6289 21.3418ZM84.3291 26.1758C82.9756 26.1758 81.877 25.751 81.0332 24.9014C80.1953 24.0459 79.7764 22.9092 79.7764 21.4912V21.2275C79.7764 20.2783 79.958 19.4316 80.3213 18.6875C80.6904 17.9375 81.2061 17.3545 81.8682 16.9385C82.5303 16.5225 83.2686 16.3145 84.083 16.3145C85.3779 16.3145 86.377 16.7275 87.0801 17.5537C87.7891 18.3799 88.1436 19.5488 88.1436 21.0605V21.9219H81.9297C81.9941 22.707 82.2549 23.3281 82.7119 23.7852C83.1748 24.2422 83.7549 24.4707 84.4521 24.4707C85.4307 24.4707 86.2275 24.0752 86.8428 23.2842L87.9941 24.3828C87.6133 24.9512 87.1035 25.3936 86.4648 25.71C85.832 26.0205 85.1201 26.1758 84.3291 26.1758ZM84.0742 18.0283C83.4883 18.0283 83.0137 18.2334 82.6504 18.6436C82.293 19.0537 82.0645 19.625 81.9648 20.3574H86.0342V20.1992C85.9873 19.4844 85.7969 18.9453 85.4629 18.582C85.1289 18.2129 84.666 18.0283 84.0742 18.0283Z" fill="white"/>
</svg>
