<svg width="295" height="124" viewBox="0 0 295 124" fill="none" xmlns="http://www.w3.org/2000/svg">
<path d="M27.328 10.536V33H21.856V18.952L16.992 33H12.256L7.36 18.92V33H1.888V10.536H8.576L14.688 26.184L20.672 10.536H27.328ZM48.8668 15.144V33H43.3628V29.768C42.8508 30.8133 42.0828 31.6453 41.0588 32.264C40.0561 32.8827 38.8828 33.192 37.5388 33.192C35.4908 33.192 33.8588 32.5093 32.6428 31.144C31.4481 29.7787 30.8508 27.9013 30.8508 25.512V15.144H36.2908V24.84C36.2908 26.056 36.6001 27.0053 37.2188 27.688C37.8588 28.3493 38.7121 28.68 39.7788 28.68C40.8881 28.68 41.7628 28.328 42.4028 27.624C43.0428 26.92 43.3628 25.9173 43.3628 24.616V15.144H48.8668ZM58.11 9.32V33H52.638V9.32H58.11ZM72 28.296V33H69.536C67.4453 33 65.8133 32.488 64.64 31.464C63.488 30.4187 62.912 28.7013 62.912 26.312V19.752H60.512V15.144H62.912V10.76H68.384V15.144H71.968V19.752H68.384V26.408C68.384 27.112 68.5227 27.6027 68.8 27.88C69.0987 28.1573 69.5893 28.296 70.272 28.296H72ZM74.5635 10.12C74.5635 9.288 74.8622 8.60533 75.4595 8.072C76.0568 7.51733 76.8462 7.24 77.8275 7.24C78.8088 7.24 79.5982 7.51733 80.1955 8.072C80.7928 8.60533 81.0915 9.288 81.0915 10.12C81.0915 10.9307 80.7928 11.6133 80.1955 12.168C79.5982 12.7013 78.8088 12.968 77.8275 12.968C76.8462 12.968 76.0568 12.7013 75.4595 12.168C74.8622 11.6133 74.5635 10.9307 74.5635 10.12ZM80.5475 15.144V33H75.0755V15.144H80.5475ZM96.7415 19.496V24.04H82.6295V19.496H96.7415ZM107.173 25.064V33H101.701V10.376H110.565C113.253 10.376 115.301 11.048 116.708 12.392C118.117 13.7147 118.821 15.5067 118.821 17.768C118.821 19.176 118.501 20.4347 117.861 21.544C117.242 22.632 116.314 23.496 115.077 24.136C113.839 24.7547 112.335 25.064 110.565 25.064H107.173ZM109.957 20.68C112.154 20.68 113.253 19.7093 113.253 17.768C113.253 15.784 112.154 14.792 109.957 14.792H107.173V20.68H109.957ZM129.865 14.92C131.636 14.92 133.214 15.2933 134.601 16.04C136.009 16.7653 137.108 17.8213 137.897 19.208C138.708 20.5947 139.113 22.216 139.113 24.072C139.113 25.928 138.708 27.5493 137.897 28.936C137.108 30.3227 136.009 31.3893 134.601 32.136C133.214 32.8613 131.636 33.224 129.865 33.224C128.094 33.224 126.505 32.8613 125.097 32.136C123.689 31.3893 122.58 30.3227 121.769 28.936C120.98 27.5493 120.585 25.928 120.585 24.072C120.585 22.216 120.98 20.5947 121.769 19.208C122.58 17.8213 123.689 16.7653 125.097 16.04C126.505 15.2933 128.094 14.92 129.865 14.92ZM129.865 19.656C128.82 19.656 127.934 20.04 127.209 20.808C126.505 21.5547 126.153 22.6427 126.153 24.072C126.153 25.5013 126.505 26.5893 127.209 27.336C127.934 28.0827 128.82 28.456 129.865 28.456C130.91 28.456 131.785 28.0827 132.489 27.336C133.193 26.5893 133.545 25.5013 133.545 24.072C133.545 22.6427 133.193 21.5547 132.489 20.808C131.785 20.04 130.91 19.656 129.865 19.656ZM148.447 14.92C150.708 14.92 152.511 15.4853 153.855 16.616C155.22 17.7467 156.073 19.24 156.415 21.096H151.295C151.145 20.3707 150.804 19.8053 150.271 19.4C149.759 18.9733 149.108 18.76 148.319 18.76C147.7 18.76 147.231 18.8987 146.911 19.176C146.591 19.432 146.431 19.8053 146.431 20.296C146.431 20.8507 146.719 21.2667 147.295 21.544C147.892 21.8213 148.82 22.0987 150.079 22.376C151.444 22.696 152.564 23.0267 153.439 23.368C154.313 23.688 155.071 24.2213 155.711 24.968C156.351 25.7147 156.671 26.7173 156.671 27.976C156.671 29 156.393 29.9067 155.839 30.696C155.284 31.4853 154.484 32.104 153.439 32.552C152.393 33 151.156 33.224 149.727 33.224C147.316 33.224 145.385 32.6907 143.935 31.624C142.484 30.5573 141.599 29.032 141.279 27.048H146.559C146.644 27.816 146.964 28.4027 147.519 28.808C148.095 29.2133 148.831 29.416 149.727 29.416C150.345 29.416 150.815 29.2773 151.135 29C151.455 28.7013 151.615 28.3173 151.615 27.848C151.615 27.2293 151.316 26.792 150.719 26.536C150.143 26.2587 149.193 25.9707 147.871 25.672C146.548 25.3947 145.46 25.096 144.607 24.776C143.753 24.456 143.017 23.944 142.399 23.24C141.78 22.5147 141.471 21.5333 141.471 20.296C141.471 18.696 142.079 17.4053 143.295 16.424C144.511 15.4213 146.228 14.92 148.447 14.92ZM169.813 28.296V33H167.349C165.258 33 163.626 32.488 162.453 31.464C161.301 30.4187 160.725 28.7013 160.725 26.312V19.752H158.325V15.144H160.725V10.76H166.197V15.144H169.781V19.752H166.197V26.408C166.197 27.112 166.335 27.6027 166.613 27.88C166.911 28.1573 167.402 28.296 168.085 28.296H169.813ZM18.144 70.632C18.144 71.8267 17.8347 72.9253 17.216 73.928C16.6187 74.9307 15.7227 75.7307 14.528 76.328C13.3547 76.9253 11.9253 77.224 10.24 77.224C7.70133 77.224 5.61067 76.6053 3.968 75.368C2.32533 74.1307 1.42933 72.4027 1.28 70.184H7.104C7.18933 71.0373 7.488 71.7093 8 72.2C8.53333 72.6907 9.20533 72.936 10.016 72.936C10.72 72.936 11.2747 72.744 11.68 72.36C12.0853 71.976 12.288 71.464 12.288 70.824C12.288 70.248 12.096 69.768 11.712 69.384C11.3493 69 10.8907 68.6907 10.336 68.456C9.78133 68.2 9.01333 67.9013 8.032 67.56C6.60267 67.0693 5.42933 66.6 4.512 66.152C3.616 65.6827 2.83733 65 2.176 64.104C1.536 63.1867 1.216 62.0027 1.216 60.552C1.216 59.208 1.55733 58.0453 2.24 57.064C2.92267 56.0827 3.86133 55.336 5.056 54.824C6.272 54.2907 7.65867 54.024 9.216 54.024C11.7333 54.024 13.728 54.6213 15.2 55.816C16.6933 57.0107 17.536 58.6533 17.728 60.744H11.808C11.7013 59.9973 11.424 59.4107 10.976 58.984C10.5493 58.536 9.96267 58.312 9.216 58.312C8.576 58.312 8.05333 58.4827 7.648 58.824C7.264 59.1653 7.072 59.6667 7.072 60.328C7.072 60.8613 7.24267 61.32 7.584 61.704C7.94667 62.0667 8.39467 62.3653 8.928 62.6C9.46133 62.8347 10.2293 63.1333 11.232 63.496C12.6827 63.9867 13.8667 64.4773 14.784 64.968C15.7013 65.4373 16.4907 66.1307 17.152 67.048C17.8133 67.9653 18.144 69.16 18.144 70.632ZM31.2813 72.296V77H28.8173C26.7266 77 25.0946 76.488 23.9213 75.464C22.7693 74.4187 22.1933 72.7013 22.1933 70.312V63.752H19.7933V59.144H22.1933V54.76H27.6653V59.144H31.2493V63.752H27.6653V70.408C27.6653 71.112 27.8039 71.6027 28.0813 71.88C28.3799 72.1573 28.8706 72.296 29.5533 72.296H31.2813ZM42.7088 58.92C44.4794 58.92 46.0581 59.2933 47.4448 60.04C48.8528 60.7653 49.9514 61.8213 50.7408 63.208C51.5514 64.5947 51.9568 66.216 51.9568 68.072C51.9568 69.928 51.5514 71.5493 50.7408 72.936C49.9514 74.3227 48.8528 75.3893 47.4448 76.136C46.0581 76.8613 44.4794 77.224 42.7088 77.224C40.9381 77.224 39.3488 76.8613 37.9408 76.136C36.5328 75.3893 35.4234 74.3227 34.6128 72.936C33.8234 71.5493 33.4288 69.928 33.4288 68.072C33.4288 66.216 33.8234 64.5947 34.6128 63.208C35.4234 61.8213 36.5328 60.7653 37.9408 60.04C39.3488 59.2933 40.9381 58.92 42.7088 58.92ZM42.7088 63.656C41.6634 63.656 40.7781 64.04 40.0528 64.808C39.3488 65.5547 38.9968 66.6427 38.9968 68.072C38.9968 69.5013 39.3488 70.5893 40.0528 71.336C40.7781 72.0827 41.6634 72.456 42.7088 72.456C43.7541 72.456 44.6288 72.0827 45.3328 71.336C46.0368 70.5893 46.3888 69.5013 46.3888 68.072C46.3888 66.6427 46.0368 65.5547 45.3328 64.808C44.6288 64.04 43.7541 63.656 42.7088 63.656ZM60.2663 62.504C60.9489 61.416 61.8236 60.552 62.8903 59.912C63.9783 59.272 65.1516 58.952 66.4103 58.952V64.808H64.8423C63.3916 64.808 62.2609 65.1173 61.4503 65.736C60.6609 66.3547 60.2663 67.4 60.2663 68.872V77H54.7943V59.144H60.2663V62.504ZM68.1885 54.12C68.1885 53.288 68.4872 52.6053 69.0845 52.072C69.6818 51.5173 70.4712 51.24 71.4525 51.24C72.4338 51.24 73.2232 51.5173 73.8205 52.072C74.4178 52.6053 74.7165 53.288 74.7165 54.12C74.7165 54.9307 74.4178 55.6133 73.8205 56.168C73.2232 56.7013 72.4338 56.968 71.4525 56.968C70.4712 56.968 69.6818 56.7013 69.0845 56.168C68.4872 55.6133 68.1885 54.9307 68.1885 54.12ZM74.1725 59.144V77H68.7005V59.144H74.1725ZM94.9105 67.592C94.9105 68.04 94.8572 68.5307 94.7505 69.064H82.3665C82.4305 70.408 82.7718 71.3787 83.3905 71.976C84.0092 72.552 84.7985 72.84 85.7585 72.84C86.5692 72.84 87.2412 72.6373 87.7745 72.232C88.3078 71.8267 88.6598 71.304 88.8305 70.664H94.6225C94.3878 71.9227 93.8758 73.0533 93.0865 74.056C92.2972 75.0373 91.2945 75.816 90.0785 76.392C88.8625 76.9467 87.5078 77.224 86.0145 77.224C84.2652 77.224 82.7078 76.8613 81.3425 76.136C79.9985 75.3893 78.9425 74.3227 78.1745 72.936C77.4065 71.5493 77.0225 69.928 77.0225 68.072C77.0225 66.1947 77.3958 64.5733 78.1425 63.208C78.9105 61.8213 79.9772 60.7653 81.3425 60.04C82.7078 59.2933 84.2652 58.92 86.0145 58.92C87.7852 58.92 89.3425 59.2827 90.6865 60.008C92.0305 60.7333 93.0652 61.7573 93.7905 63.08C94.5372 64.3813 94.9105 65.8853 94.9105 67.592ZM89.3745 66.76C89.3958 65.5867 89.0758 64.712 88.4145 64.136C87.7745 63.5387 86.9745 63.24 86.0145 63.24C85.0118 63.24 84.1798 63.5387 83.5185 64.136C82.8572 64.7333 82.4838 65.608 82.3985 66.76H89.3745ZM104.259 58.92C106.52 58.92 108.323 59.4853 109.667 60.616C111.032 61.7467 111.886 63.24 112.227 65.096H107.107C106.958 64.3707 106.616 63.8053 106.083 63.4C105.571 62.9733 104.92 62.76 104.131 62.76C103.512 62.76 103.043 62.8987 102.723 63.176C102.403 63.432 102.243 63.8053 102.243 64.296C102.243 64.8507 102.531 65.2667 103.107 65.544C103.704 65.8213 104.632 66.0987 105.891 66.376C107.256 66.696 108.376 67.0267 109.251 67.368C110.126 67.688 110.883 68.2213 111.523 68.968C112.163 69.7147 112.483 70.7173 112.483 71.976C112.483 73 112.206 73.9067 111.651 74.696C111.096 75.4853 110.296 76.104 109.251 76.552C108.206 77 106.968 77.224 105.539 77.224C103.128 77.224 101.198 76.6907 99.747 75.624C98.2963 74.5573 97.411 73.032 97.091 71.048H102.371C102.456 71.816 102.776 72.4027 103.331 72.808C103.907 73.2133 104.643 73.416 105.539 73.416C106.158 73.416 106.627 73.2773 106.947 73C107.267 72.7013 107.427 72.3173 107.427 71.848C107.427 71.2293 107.128 70.792 106.531 70.536C105.955 70.2587 105.006 69.9707 103.683 69.672C102.36 69.3947 101.272 69.096 100.419 68.776C99.5657 68.456 98.8297 67.944 98.211 67.24C97.5923 66.5147 97.283 65.5333 97.283 64.296C97.283 62.696 97.891 61.4053 99.107 60.424C100.323 59.4213 102.04 58.92 104.259 58.92Z" fill="#172B4D"/>
<path d="M4.979 103.731C6.123 103.731 7.072 104.026 7.826 104.615C8.58 105.204 9.07833 106.006 9.321 107.02H7.397C7.19767 106.526 6.88567 106.136 6.461 105.85C6.045 105.564 5.54233 105.421 4.953 105.421C4.46767 105.421 4.03 105.542 3.64 105.785C3.25 106.028 2.94667 106.374 2.73 106.825C2.51333 107.276 2.405 107.804 2.405 108.411C2.405 109.009 2.51333 109.533 2.73 109.984C2.94667 110.435 3.25 110.781 3.64 111.024C4.03 111.267 4.46767 111.388 4.953 111.388C5.54233 111.388 6.045 111.245 6.461 110.959C6.88567 110.673 7.19767 110.283 7.397 109.789H9.321C9.07833 110.803 8.58 111.605 7.826 112.194C7.072 112.783 6.123 113.078 4.979 113.078C4.10367 113.078 3.328 112.883 2.652 112.493C1.98467 112.094 1.46467 111.54 1.092 110.829C0.728 110.118 0.546 109.312 0.546 108.411C0.546 107.501 0.728 106.691 1.092 105.98C1.46467 105.269 1.98467 104.719 2.652 104.329C3.31933 103.93 4.095 103.731 4.979 103.731ZM16.2863 111.154H12.6073L11.9573 113H10.0203L13.4003 103.926H15.4933L18.8603 113H16.9233L16.2863 111.154ZM15.7923 109.763L14.4403 105.889L13.0883 109.763H15.7923ZM27.6236 113H25.7906L21.6826 106.76V113H19.8496V103.822H21.6826L25.7906 110.114V103.822H27.6236V113ZM33.5852 103.692C34.4432 103.692 35.2189 103.891 35.9122 104.29C36.6142 104.689 37.1645 105.248 37.5632 105.967C37.9705 106.678 38.1742 107.484 38.1742 108.385C38.1742 109.286 37.9705 110.097 37.5632 110.816C37.1645 111.535 36.6142 112.094 35.9122 112.493C35.2189 112.892 34.4432 113.091 33.5852 113.091C32.7272 113.091 31.9472 112.892 31.2452 112.493C30.5519 112.094 30.0015 111.535 29.5942 110.816C29.1955 110.097 28.9962 109.286 28.9962 108.385C28.9962 107.484 29.1955 106.678 29.5942 105.967C30.0015 105.248 30.5519 104.689 31.2452 104.29C31.9472 103.891 32.7272 103.692 33.5852 103.692ZM33.5852 105.382C33.0479 105.382 32.5755 105.503 32.1682 105.746C31.7609 105.989 31.4402 106.34 31.2062 106.799C30.9809 107.25 30.8682 107.778 30.8682 108.385C30.8682 108.992 30.9809 109.525 31.2062 109.984C31.4402 110.435 31.7609 110.781 32.1682 111.024C32.5755 111.267 33.0479 111.388 33.5852 111.388C34.1225 111.388 34.5949 111.267 35.0022 111.024C35.4095 110.781 35.7259 110.435 35.9512 109.984C36.1852 109.525 36.3022 108.992 36.3022 108.385C36.3022 107.778 36.1852 107.25 35.9512 106.799C35.7259 106.34 35.4095 105.989 35.0022 105.746C34.5949 105.503 34.1225 105.382 33.5852 105.382ZM41.3857 109.594V113H39.5527V103.822H42.8937C43.977 103.822 44.7917 104.082 45.3377 104.602C45.8924 105.122 46.1697 105.828 46.1697 106.721C46.1697 107.596 45.8837 108.294 45.3117 108.814C44.7484 109.334 43.9424 109.594 42.8937 109.594H41.3857ZM42.6987 108.125C43.7734 108.125 44.3107 107.657 44.3107 106.721C44.3107 106.262 44.185 105.911 43.9337 105.668C43.6824 105.425 43.2707 105.304 42.6987 105.304H41.3857V108.125H42.6987ZM54.7573 103.822L51.6503 109.789V113H49.8043V109.789L46.6843 103.822H48.7903L50.7403 107.839L52.6903 103.822H54.7573Z" fill="#344563"/>
<circle cx="71" cy="108" r="4" fill="#C1C7D0"/>
<path d="M92.954 108.268C93.5087 108.381 93.9507 108.645 94.28 109.061C94.618 109.468 94.787 109.949 94.787 110.504C94.787 111.275 94.527 111.886 94.007 112.337C93.4957 112.779 92.7503 113 91.771 113H87.832V103.822H91.693C92.6203 103.822 93.331 104.026 93.825 104.433C94.3277 104.84 94.579 105.412 94.579 106.149C94.579 106.721 94.4273 107.189 94.124 107.553C93.8293 107.917 93.4393 108.155 92.954 108.268ZM89.665 107.67H91.316C91.7753 107.67 92.122 107.57 92.356 107.371C92.5987 107.163 92.72 106.868 92.72 106.487C92.72 106.106 92.603 105.811 92.369 105.603C92.135 105.395 91.7753 105.291 91.29 105.291H89.665V107.67ZM91.407 111.505C91.8923 111.505 92.265 111.401 92.525 111.193C92.785 110.976 92.915 110.664 92.915 110.257C92.915 109.85 92.7807 109.538 92.512 109.321C92.252 109.096 91.8793 108.983 91.394 108.983H89.665V111.505H91.407ZM98.8923 105.707C99.4989 105.707 100.019 105.85 100.452 106.136C100.886 106.422 101.193 106.808 101.375 107.293V105.798H103.195V113H101.375V111.492C101.193 111.977 100.886 112.367 100.452 112.662C100.019 112.948 99.4989 113.091 98.8923 113.091C98.2856 113.091 97.7396 112.944 97.2543 112.649C96.7689 112.354 96.3876 111.93 96.1103 111.375C95.8416 110.812 95.7073 110.153 95.7073 109.399C95.7073 108.645 95.8416 107.991 96.1103 107.436C96.3876 106.873 96.7689 106.444 97.2543 106.149C97.7396 105.854 98.2856 105.707 98.8923 105.707ZM99.4643 107.306C98.8923 107.306 98.4329 107.492 98.0863 107.865C97.7396 108.238 97.5663 108.749 97.5663 109.399C97.5663 110.049 97.7396 110.56 98.0863 110.933C98.4329 111.297 98.8923 111.479 99.4643 111.479C100.019 111.479 100.474 111.293 100.829 110.92C101.193 110.539 101.375 110.032 101.375 109.399C101.375 108.758 101.193 108.251 100.829 107.878C100.474 107.497 100.019 107.306 99.4643 107.306ZM108.093 105.707C109.021 105.707 109.792 105.958 110.407 106.461C111.031 106.964 111.421 107.648 111.577 108.515H109.64C109.562 108.134 109.385 107.835 109.107 107.618C108.83 107.393 108.479 107.28 108.054 107.28C107.569 107.28 107.162 107.462 106.832 107.826C106.512 108.181 106.351 108.706 106.351 109.399C106.351 110.092 106.512 110.621 106.832 110.985C107.162 111.34 107.569 111.518 108.054 111.518C108.479 111.518 108.83 111.41 109.107 111.193C109.385 110.968 109.562 110.664 109.64 110.283H111.577C111.421 111.15 111.031 111.834 110.407 112.337C109.792 112.84 109.021 113.091 108.093 113.091C107.391 113.091 106.767 112.944 106.221 112.649C105.675 112.346 105.251 111.917 104.947 111.362C104.644 110.807 104.492 110.153 104.492 109.399C104.492 108.645 104.644 107.991 104.947 107.436C105.251 106.873 105.675 106.444 106.221 106.149C106.767 105.854 107.391 105.707 108.093 105.707ZM117.092 113L114.713 109.854V113H112.88V103.38H114.713V108.788L117.079 105.798H119.25L116.221 109.386L119.328 113H117.092ZM124.882 105.278V107.657H128.132V109.061H124.882V111.531H128.522V113H123.049V103.822H128.522V105.278H124.882ZM134.169 105.694C135.001 105.694 135.664 105.967 136.158 106.513C136.652 107.059 136.899 107.826 136.899 108.814V113H135.079V109.022C135.079 108.45 134.932 108.008 134.637 107.696C134.342 107.375 133.939 107.215 133.428 107.215C132.908 107.215 132.492 107.384 132.18 107.722C131.868 108.06 131.712 108.545 131.712 109.178V113H129.879V105.798H131.712V107.241C131.903 106.756 132.215 106.379 132.648 106.11C133.09 105.833 133.597 105.694 134.169 105.694ZM141.333 105.707C141.939 105.707 142.455 105.85 142.88 106.136C143.313 106.422 143.625 106.808 143.816 107.293V103.38H145.636V113H143.816V111.492C143.625 111.977 143.313 112.367 142.88 112.662C142.455 112.948 141.939 113.091 141.333 113.091C140.726 113.091 140.18 112.944 139.695 112.649C139.209 112.354 138.828 111.93 138.551 111.375C138.282 110.812 138.148 110.153 138.148 109.399C138.148 108.645 138.282 107.991 138.551 107.436C138.828 106.873 139.209 106.444 139.695 106.149C140.18 105.854 140.726 105.707 141.333 105.707ZM141.905 107.306C141.333 107.306 140.873 107.492 140.527 107.865C140.18 108.238 140.007 108.749 140.007 109.399C140.007 110.049 140.18 110.56 140.527 110.933C140.873 111.297 141.333 111.479 141.905 111.479C142.459 111.479 142.914 111.293 143.27 110.92C143.634 110.539 143.816 110.032 143.816 109.399C143.816 108.758 143.634 108.251 143.27 107.878C142.914 107.497 142.459 107.306 141.905 107.306ZM158.201 108.398C158.201 109.308 158.01 110.11 157.629 110.803C157.248 111.496 156.693 112.038 155.965 112.428C155.246 112.809 154.388 113 153.391 113H150.128V103.822H153.391C154.388 103.822 155.246 104.013 155.965 104.394C156.693 104.767 157.248 105.3 157.629 105.993C158.01 106.678 158.201 107.479 158.201 108.398ZM153.235 111.362C154.223 111.362 154.986 111.102 155.523 110.582C156.069 110.062 156.342 109.334 156.342 108.398C156.342 107.453 156.069 106.721 155.523 106.201C154.986 105.681 154.223 105.421 153.235 105.421H151.961V111.362H153.235ZM166.346 109.126C166.346 109.308 166.325 109.516 166.281 109.75H161.003C161.029 110.391 161.203 110.864 161.523 111.167C161.844 111.47 162.243 111.622 162.719 111.622C163.144 111.622 163.495 111.518 163.772 111.31C164.058 111.102 164.24 110.82 164.318 110.465H166.255C166.16 110.968 165.956 111.418 165.644 111.817C165.332 112.216 164.929 112.528 164.435 112.753C163.95 112.978 163.408 113.091 162.81 113.091C162.108 113.091 161.484 112.944 160.938 112.649C160.392 112.346 159.968 111.917 159.664 111.362C159.361 110.807 159.209 110.153 159.209 109.399C159.209 108.645 159.361 107.991 159.664 107.436C159.968 106.873 160.392 106.444 160.938 106.149C161.484 105.854 162.108 105.707 162.81 105.707C163.521 105.707 164.141 105.854 164.669 106.149C165.207 106.444 165.618 106.851 165.904 107.371C166.199 107.882 166.346 108.467 166.346 109.126ZM164.5 108.944C164.526 108.355 164.37 107.908 164.032 107.605C163.703 107.302 163.296 107.15 162.81 107.15C162.316 107.15 161.9 107.302 161.562 107.605C161.224 107.908 161.038 108.355 161.003 108.944H164.5ZM170.78 111.167L172.6 105.798H174.55L171.885 113H169.649L166.984 105.798H168.947L170.78 111.167Z" fill="#7A869A"/>
<circle cx="191" cy="108" r="4" fill="#C1C7D0"/>
<path d="M207.481 111.557C210.419 109.52 211.888 107.83 211.888 106.487C211.888 106.08 211.788 105.759 211.589 105.525C211.398 105.291 211.095 105.174 210.679 105.174C209.821 105.174 209.366 105.759 209.314 106.929H207.533C207.585 105.846 207.914 105.027 208.521 104.472C209.128 103.909 209.895 103.627 210.822 103.627C211.767 103.627 212.49 103.874 212.993 104.368C213.504 104.853 213.76 105.503 213.76 106.318C213.76 106.959 213.569 107.605 213.188 108.255C212.815 108.896 212.339 109.49 211.758 110.036C211.177 110.573 210.566 111.037 209.925 111.427H213.942V112.922H207.481V111.557ZM214.974 108.333C214.974 111.444 216.144 113 218.484 113C219.724 113 220.616 112.584 221.162 111.752C221.708 110.92 221.981 109.78 221.981 108.333C221.981 106.894 221.708 105.759 221.162 104.927C220.616 104.095 219.724 103.679 218.484 103.679C216.144 103.679 214.974 105.23 214.974 108.333ZM220.174 108.333C220.174 109.278 220.057 110.006 219.823 110.517C219.598 111.02 219.152 111.271 218.484 111.271C217.808 111.271 217.353 111.02 217.119 110.517C216.894 110.006 216.781 109.278 216.781 108.333C216.781 107.397 216.894 106.678 217.119 106.175C217.353 105.664 217.808 105.408 218.484 105.408C219.152 105.408 219.598 105.664 219.823 106.175C220.057 106.678 220.174 107.397 220.174 108.333ZM222.733 105.538V103.822H226.035V113H224.111V105.538H222.733ZM234.044 105.252H229.689V107.566C229.888 107.332 230.161 107.146 230.508 107.007C230.863 106.86 231.253 106.786 231.678 106.786C232.311 106.786 232.835 106.925 233.251 107.202C233.676 107.471 233.988 107.835 234.187 108.294C234.395 108.745 234.499 109.247 234.499 109.802C234.499 110.781 234.222 111.566 233.667 112.155C233.121 112.744 232.337 113.039 231.314 113.039C230.647 113.039 230.066 112.922 229.572 112.688C229.078 112.445 228.692 112.112 228.415 111.687C228.138 111.254 227.986 110.751 227.96 110.179H229.741C229.81 110.569 229.971 110.881 230.222 111.115C230.473 111.34 230.807 111.453 231.223 111.453C231.726 111.453 232.098 111.301 232.341 110.998C232.592 110.686 232.718 110.274 232.718 109.763C232.718 109.278 232.588 108.901 232.328 108.632C232.068 108.363 231.7 108.229 231.223 108.229C230.876 108.229 230.582 108.307 230.339 108.463C230.096 108.61 229.919 108.81 229.806 109.061H228.025V103.64H234.044V105.252Z" fill="#7A869A"/>
</svg>
